# xmcd
#
# Track frame offsets:
#  151
#  17406
#  33515
#  48018
#  60095
#  70609
#  87934
#  102889
#  115880
#  131841
#  145576
#  160841
#  174747
#
# Disc length: 2566 seconds
#
# Revision: 0
# Processed by: cddbd v1.5.1PL2 Copyright (c) Steve Scherf et al.
# Submitted via: Collectorz.com_Music_Collector 6.9
#
DISCID=9c0a040d
DTITLE=Shawn Camp - Fireball
DYEAR=2006
DGENRE=
TTITLE0=Fireball
TTITLE1=Tulsa Sounds Like Trouble To Me
TTITLE2=Love Crazy
TTITLE3=The Way It Is
TTITLE4=Fallin' For You
TTITLE5=Waitin' For The Day To Break
TTITLE6=Hotwired
TTITLE7=Beagle Hound
TTITLE8=Would You Go With Me
TTITLE9=Love Ain't Leavin'
TTITLE10=Nothin' To Do With You
TTITLE11=Just As Dead Today
TTITLE12=Drank
EXTD=
EXTT0=
EXTT1=
EXTT2=
EXTT3=
EXTT4=
EXTT5=
EXTT6=
EXTT7=
EXTT8=
EXTT9=
EXTT10=
EXTT11=
EXTT12=
PLAYORDER=
